# xmcd CD database file
#
# Track frame offsets:
#	150
#	13748
#	26338
#	41306
#	58688
#	73695
#	93868
#	111293
#	128467
#	144371
#	163260
#
# Disc length: 2333 seconds
#
# Revision: 0
# Processed by: cddbd v1.5.2PL0 Copyright (c) Steve Scherf et al.
# Submitted via: CDex 1.78
#
DISCID=89091b0b
DTITLE=Saddle Creek - TEN
DYEAR=2014
DGENRE=Country
TTITLE0=Don't Rock the Jukebox
TTITLE1=The One that got Away
TTITLE2=Someday
TTITLE3=My kind of Woman
TTITLE4=Folsom Prison Blues
TTITLE5=Cowboy up
TTITLE6=18 Wheels
TTITLE7=Dave Duddley
TTITLE8=Trail of tears
TTITLE9=Chattahoochee
TTITLE10=Country Tonight
EXTD=YEAR: 2014
EXTT0=
EXTT1=
EXTT2=
EXTT3=
EXTT4=
EXTT5=
EXTT6=
EXTT7=
EXTT8=
EXTT9=
EXTT10=
PLAYORDER=
